<?xml version="1.0" encoding="UTF-8"?>
<svg width="504px" height="504px" viewBox="0 0 504 504" version="1.1" xmlns="http://www.w3.org/2000/svg" xmlns:xlink="http://www.w3.org/1999/xlink">
    <!-- Generator: Sketch 64 (93537) - https://sketch.com -->
    <title>instagram</title>
    <desc>Created with Sketch.</desc>
    <g id="instagram" stroke="none" stroke-width="1" fill="none" fill-rule="evenodd">
        <g id="logo" transform="translate(0.000800, 0.159800)" fill="#FFFFFF">
            <path d="M245.922035,0 L257.918276,0 L272.024168,0.0100769747 C322.395169,0.0724443414 331.807412,0.421117158 355.7862,1.51519956 C382.6002,2.73819956 400.9132,6.99719956 416.9372,13.2251996 C433.5032,19.6621996 447.5522,28.2761996 461.5582,42.2811996 C475.5632,56.2871996 484.1772,70.3361996 490.6152,86.9021996 L491.0903,88.1394345 C496.980083,103.663924 501.025021,121.451987 502.275666,147.026071 L502.658284,155.499515 C503.583279,176.698671 503.829387,189.625181 503.839846,247.886301 L503.834481,267.017526 C503.788684,321.802827 503.453591,331.033556 502.3242,355.7862 C501.1012,382.6002 496.8422,400.9132 490.6152,416.9372 C484.1772,433.5032 475.5632,447.5522 461.5582,461.5582 C447.5522,475.5632 433.5032,484.1772 416.9372,490.6152 L415.699965,491.0903 C400.175475,496.980083 382.387412,501.025021 356.813329,502.275666 L348.339885,502.658284 C327.140738,503.583279 314.214312,503.829387 255.954039,503.839846 L236.822655,503.834481 C182.036572,503.788684 172.805844,503.453591 148.0532,502.3242 C121.2392,501.1012 102.9262,496.8422 86.9021996,490.6152 C70.3361996,484.1772 56.2871996,475.5632 42.2811996,461.5582 C28.2761996,447.5522 19.6621996,433.5032 13.2251996,416.9372 L12.7500243,415.699965 C6.85932797,400.175475 2.81437779,382.387412 1.56373281,356.813329 L1.21508093,349.115167 C0.272800665,327.690418 0.0158721818,315.20289 0,257.918276 L0,236.876195 C0.050497424,182.042583 0.385440558,172.813905 1.51519956,148.0532 C2.72252007,121.582969 6.88849344,103.397161 12.9866343,87.519649 L13.2251996,86.9021996 C19.6621996,70.3361996 28.2761996,56.2871996 42.2811996,42.2811996 C56.2871996,28.2761996 70.3361996,19.6621996 86.9021996,13.2251996 L88.1394345,12.7500243 C103.663924,6.85932797 121.451987,2.81437779 147.026071,1.56373281 L154.724232,1.21508093 C176.148988,0.272800665 188.636591,0.0158721818 245.922035,0 Z M265.022704,45.3940996 L238.817502,45.3940996 C190.457839,45.4256507 177.774894,45.659103 158.849129,46.470093 L150.1222,46.8591996 C125.5602,47.9791996 112.2212,52.0831996 103.3442,55.5331996 C91.5851996,60.1031996 83.1931996,65.5621996 74.3781996,74.3781996 C65.7458662,83.0095537 60.3321149,91.2353493 55.8200044,102.613612 L55.3121336,103.916941 C51.9099121,112.793897 47.9553698,126.082795 46.8591996,150.1222 L46.441031,159.530548 C45.634299,178.538251 45.4144698,191.669095 45.3921652,242.376113 L45.3921652,265.022704 C45.4302123,320.373319 45.7308276,328.986116 46.8591996,353.7172 L46.9347064,355.26981 C48.1535418,378.844797 52.1566038,391.807072 55.5331996,400.4952 C60.1031996,412.2542 65.5631996,420.6462 74.3781996,429.4612 C83.0095537,438.093533 91.2353493,443.507284 102.613612,448.019395 L103.916941,448.527265 C112.793897,451.929487 126.082795,455.884029 150.1222,456.9802 L159.529462,457.398368 C178.534985,458.2051 191.664846,458.424929 242.375423,458.447234 L265.023654,458.447234 C320.378167,458.409187 328.98984,458.108572 353.7172,456.9802 L355.26981,456.904693 C378.844797,455.685857 391.807072,451.682795 400.4952,448.3062 C412.2542,443.7362 420.6462,438.2772 429.4612,429.4612 C438.093533,420.829845 443.507284,412.60405 448.019395,401.225787 L448.527265,399.922458 C451.892506,391.141991 455.798126,378.044972 456.943446,354.497291 L457.369306,344.990271 C458.199838,325.608475 458.424664,312.774065 458.447234,261.464145 L458.447234,238.817502 C458.413748,190.457839 458.180296,177.774894 457.369306,158.849129 L456.9802,150.1222 C455.8602,125.5602 451.7562,112.2212 448.3062,103.3442 C443.7362,91.5851996 438.2772,83.1931996 429.4612,74.3781996 C420.829845,65.7458662 412.60405,60.3321149 401.225787,55.8200044 L399.922458,55.3121336 C391.141991,51.9468928 378.044972,48.0412728 354.497291,46.895953 L344.990271,46.470093 C326.064518,45.659103 313.381662,45.4256507 265.022704,45.3940996 Z" id="body"></path>
            <path d="M251.9202,335.8932 C205.5422,335.8932 167.9462,298.2972 167.9462,251.9202 C167.9462,205.5422 205.5422,167.9462 251.9202,167.9462 C298.2972,167.9462 335.8932,205.5422 335.8932,251.9202 C335.8932,298.2972 298.2972,335.8932 251.9202,335.8932 Z M251.9202,122.5552 C180.4732,122.5552 122.5552,180.4732 122.5552,251.9202 C122.5552,323.3662 180.4732,381.2842 251.9202,381.2842 C323.3662,381.2842 381.2842,323.3662 381.2842,251.9202 C381.2842,180.4732 323.3662,122.5552 251.9202,122.5552 L251.9202,122.5552 Z" id="lens"></path>
            <path d="M416.6262,117.4442 C416.6262,134.1402 403.0912,147.6742 386.3952,147.6742 C369.7002,147.6742 356.1652,134.1402 356.1652,117.4442 C356.1652,100.7482 369.7002,87.2131996 386.3952,87.2131996 C403.0912,87.2131996 416.6262,100.7482 416.6262,117.4442" id="eye"></path>
        </g>
    </g>
</svg>