<?xml version="1.0" encoding="utf-8"?>
<!-- Generator: Adobe Illustrator 22.1.0, SVG Export Plug-In . SVG Version: 6.00 Build 0)  -->
<svg version="1.1" id="Layer_1" xmlns="http://www.w3.org/2000/svg" xmlns:xlink="http://www.w3.org/1999/xlink" x="0px" y="0px"
	 viewBox="0 0 4421.3 1718.4" style="enable-background:new 0 0 4421.3 1718.4;" xml:space="preserve">
<style type="text/css">
	.st0{fill:#F3EEE9;}
</style>
<title>logo</title>
<g id="Layer_2_1_">
	<g id="Layer_1-2">
		<path class="st0" d="M529.5,350.5v188.4h-72.2v-513h147.2c49.9-2.3,99.3,11.5,140.8,39.3c36.6,28.9,56.5,74.2,53,120.7
			c1,32.6-8.5,64.6-27,91.4c-18.6,25-44,44-73.2,54.9c-32.4,12.3-66.8,18.4-101.5,17.8L529.5,350.5z M603.5,87.2h-74.1v203h70.9
			c31.2,1.4,62.1-7.4,87.8-25.1c22.7-18.5,35.5-46.6,34.7-75.9c3.3-29.9-8.4-59.4-31.1-79.1C665.6,93.1,634.7,85.1,603.5,87.2z"/>
		<path class="st0" d="M898.4,253.2l-20.1-57.6c18.3-11,38.4-18.8,59.4-22.9c21.2-5.7,43-8.9,64.9-9.6c26.1-0.2,51.9,5.5,75.4,16.9
			c21.6,10.2,40.1,26,53.5,45.7c12.1,19.4,18.2,42,17.4,64.9v248.3h-48.9l-9.1-34.7c-14.8,13.1-31.6,23.6-49.8,31.1
			c-17.9,8.3-37.4,12.7-57.2,12.8c-34.5,2.4-68.7-8.7-95.1-31.1c-22-22.1-33.8-52.5-32.5-83.7c-1.6-32,12-62.8,36.6-83.2
			c28.1-21.2,62.7-31.7,97.8-29.7h86.9c1.5-24-4.3-47.9-16.5-68.6c-13.6-17.1-35-26-56.7-23.8C967.8,228.7,931.6,237.3,898.4,253.2z
			 M920.4,433.3c-0.1,15.1,5.6,29.7,16,40.7c12.2,11.9,28.8,18,45.7,16.9c17.9-0.2,35.5-4.7,51.2-13.3c17.3-8.8,32.8-20.7,45.7-35.2
			v-74.1h-89.6c-18.6-1.1-36.8,5.9-49.8,19.2C927.1,399.5,920.2,416,920.4,433.3z"/>
		<path class="st0" d="M1310.8,296.6v242.3h-70.4V173.1h40.7l21.5,61.7c18.6-15.6,38.9-29.3,60.4-40.7c18.2-11.7,38.9-18.9,60.4-21
			l16,58.1c-21.8,1.6-42.9,8.1-61.7,19.2C1353.4,262.7,1330.9,278.3,1310.8,296.6z"/>
		<path class="st0" d="M1525.7,253.2l-20.1-57.6c18.1-11.1,38.1-18.9,59-22.9c21.4-5.7,43.3-8.9,65.4-9.6
			c26.1-0.1,51.9,5.6,75.4,16.9c21.5,10.2,39.8,26,53,45.7c12.6,19,19.3,41.2,19.2,64V538h-50.3l-9.1-34.7
			c-14.8,13-31.7,23.5-49.8,31.1c-17.9,8.2-37.4,12.6-57.2,12.8c-34.9,3.1-69.6-7.7-96.5-30.2c-22.2-22-34-52.4-32.5-83.7
			c-1.8-32,11.8-62.9,36.6-83.2c28.1-21.2,62.7-31.7,97.8-29.7h86.4c1.6-23.9-4-47.8-16-68.6c-13.8-17.1-35.3-26-57.2-23.8
			C1593.8,229,1558.3,237.5,1525.7,253.2z M1548.6,433.3c-0.3,15.1,5.3,29.7,15.5,40.7c12.2,11.9,28.8,18,45.7,16.9
			c18-0.2,35.8-4.7,51.7-13.3c17.2-8.9,32.7-20.8,45.7-35.2v-74.1h-91.4c-18.6-0.9-36.7,6-49.8,19.2
			C1554.3,399.9,1548.1,416.4,1548.6,433.3z"/>
		<path class="st0" d="M2117.8,189.1c27.4,16,49.4,39.9,63.1,68.6c15.2,32.1,22.7,67.3,21.9,102.9c0.6,34.6-7.2,68.8-22.9,99.7
			c-14.6,27.9-36.8,51-64,66.8c-29.4,16.1-62.5,24.3-96,23.8c-15.6-0.3-31-3.1-45.7-8.2c-17.4-5.7-33.6-14.3-48-25.6l-14.2,21.9
			h-41.1V14.5l74.5-8.2v179.7c12.8-7,26.3-12.5,40.2-16.5c11.4-3.8,23.2-6,35.2-6.4C2054.9,162.9,2088.4,171.9,2117.8,189.1z
			 M2100,451.1c19.9-26.2,30.1-58.5,28.8-91.4c1.7-34.6-8.3-68.7-28.3-96.9c-18.8-24.7-48.6-38.6-79.6-37
			c-27.5-0.8-54.3,8.5-75.4,26.1v211.7c21.6,16.6,48.2,25.3,75.4,24.7C2051.7,489.3,2081.1,475.5,2100,451.1z"/>
		<path class="st0" d="M2591.5,456.6c-14.3,28.5-36.8,52.2-64.5,68.1c-29.9,16.6-63.7,24.9-97.8,24.2c-33.7,0.7-67.1-7.7-96.5-24.2
			c-27.2-16-49-39.7-62.6-68.1c-15.8-31.3-24-66-23.8-101c-0.7-34.7,7-69,22.4-100.1c15.1-28.1,38.2-51.2,66.3-66.3
			c29.7-16.7,63.3-25,97.4-24.2c33.6-0.7,66.8,7.7,96,24.2c27.3,16.1,49.4,39.7,63.6,68.1c14.3,31.1,21.1,65,20.1,99.2
			C2613.4,391,2606.3,425.4,2591.5,456.6z M2509.6,450.2c19.9-26.3,30.7-58.4,30.6-91.4c1.6-34.2-8.5-67.9-28.8-95.6
			c-18.9-24.3-48.4-38-79.1-36.6c-31-1.1-60.7,12.7-80,37c-20.1,26.2-30.8,58.4-30.2,91.4c-1.7,34,8.3,67.6,28.3,95.1
			c18.9,24.5,48.7,38.1,79.6,36.6C2460.9,487.9,2490.4,474.3,2509.6,450.2z"/>
		<path class="st0" d="M2762,6.3v532.6h-72.7V14.5L2762,6.3z"/>
		<path class="st0" d="M2892.3,253.2l-20.1-57.6c18.4-11.1,38.7-18.9,59.9-22.9c21.4-5.7,43.3-8.9,65.4-9.6
			c26.1-0.2,51.9,5.5,75.4,16.9c21.6,10.2,40.1,26,53.5,45.7c12.6,19,19.3,41.2,19.2,64V538h-51.7l-9.1-34.7
			c-14.8,13.1-31.6,23.6-49.8,31.1c-17.9,8.3-37.4,12.6-57.2,12.8c-34.5,2.4-68.7-8.7-95.1-31.1c-22-22.1-33.8-52.5-32.5-83.7
			c-1.4-31.6,11.9-62,36.1-82.3c28.1-21.2,62.7-31.7,97.8-29.7h86.9c1.5-24-4.3-47.9-16.5-68.6c-13.8-17.1-35.3-26-57.2-23.8
			C2961,228.8,2925.2,237.4,2892.3,253.2z M2915.2,433.3c-0.3,15.2,5.4,29.8,16,40.7c12.2,11.9,28.8,18,45.7,16.9
			c17.9-0.2,35.5-4.7,51.2-13.3c17.3-8.8,32.8-20.7,45.7-35.2v-74.1h-91.4c-18.7-1.1-37,5.9-50.3,19.2
			C2920.6,400,2914.6,416.4,2915.2,433.3z"/>
		<path class="st0" d="M3212.4,515.6l22.9-50.3c30.3,15.5,63.8,23.9,97.8,24.7c19.5,0.7,38.9-3.7,56.2-12.8
			c12.9-6.3,21.2-19.4,21.5-33.8c0-25.1-27.4-45.7-81.8-63.6c-76.8-26.1-118-63.1-118-110.2c-1.4-30.7,12.6-60.1,37.5-78.2
			c29.8-20.3,65.5-30.3,101.5-28.3c20.6,0.5,41.1,3.9,60.8,10.1c20.1,5,39.3,13.4,56.7,24.7l-22.4,49.4
			c-15.6-7.5-31.8-13.8-48.5-18.7c-15.8-4.4-32.1-6.5-48.5-6.4c-16.2-0.3-32.2,4.3-45.7,13.3c-11.4,7.1-18.3,19.5-18.3,32.9
			c1.6,11.9,9,22.3,19.7,27.9c17.4,10.6,36.2,18.9,55.8,24.7c80.9,29.7,121.2,69.5,121.2,118.4c1.3,31.8-13.3,62.1-38.9,80.9
			c-32.7,21.1-71.3,31.2-110.2,28.8c-21.2-0.6-42.2-3.7-62.6-9.1C3248.8,535.3,3229.6,527.1,3212.4,515.6z"/>
		<path class="st0" d="M491.1,1070.6l193.4-513.4h65.4l198,508.9l-73.2,10.5L821.2,933h-208l-51.2,137.2L491.1,1070.6z M633.7,874.9
			h166.9L716,654.6L633.7,874.9z"/>
		<path class="st0" d="M1073.1,829.2v242.3h-72.7V705.8h40.7l23.8,59.4c18.6-15.6,38.9-29.3,60.4-40.7c18.8-11.1,40-17.5,61.7-18.7
			l16,58.1c-22.9,1.1-45.2,7.7-64.9,19.2C1114.4,795.4,1092.5,810.9,1073.1,829.2z"/>
		<path class="st0" d="M1568.2,1103.6c0.2,25.8-7.1,51-21,72.7c-14.7,22.2-35.5,39.7-59.9,50.3c-29.8,12.5-61.9,18.6-94.2,17.8
			c-22.6-0.6-45-4-66.8-10.1c-22.3-5.1-43.7-13.9-63.1-26.1l22.9-52.6c25.1,11,45.7,18.7,56.7,22.9c15.8,4.8,32.4,7,48.9,6.4
			c26.8,1.4,53.4-6.2,75.4-21.5c18.2-14.4,28.4-36.7,27.4-59.9v-45.7c-13.3,7.8-27.4,14.1-42.1,18.7c-12.2,4.2-25,6.5-37.9,6.9
			c-34,0.3-67.5-8.5-96.9-25.6c-27.3-16-49.3-39.7-63.1-68.1c-14.8-32.4-22.2-67.7-21.5-103.3c-1.4-35.6,6.3-71.1,22.4-102.9
			c14.3-28,36.6-51.2,64-66.8c29.3-16.3,62.5-24.5,96-23.8c15.6,0.5,31,3.4,45.7,8.7c17.9,6.2,34.7,15.1,49.8,26.5l14.6-25.6h41.6
			L1568.2,1103.6z M1458.5,1012.1c13.4-5.5,25.6-13.4,36.1-23.3V783.5c-10.7-9.6-23.1-17-36.6-21.9c-14.7-5.1-30.2-7.4-45.7-6.9
			c-30.5-1.3-59.9,11.9-79.1,35.7c-19.9,26.2-30,58.6-28.8,91.4c-1.6,34.7,8.4,69,28.3,97.4c18.9,24.6,48.6,38.4,79.6,37
			C1427.9,1018,1443.6,1016.6,1458.5,1012.1z"/>
		<path class="st0" d="M1908.4,962.7V704.4h72.2v365.8h-50.3l-12.8-48.5c-19.9,18.5-42.4,33.9-66.8,45.7
			c-22.8,11-47.8,16.8-73.2,16.9c-33.8,2.5-66.7-11.2-88.7-37c-20.6-29-30.7-64.1-28.8-99.7V704.4h72.2V939
			c-1.3,21.1,3.3,42.2,13.3,60.8c10.6,14.4,27.9,22.3,45.7,21c19.8-0.7,39.2-6.3,56.2-16.5C1869.3,992.7,1889.7,978.7,1908.4,962.7z
			"/>
		<path class="st0" d="M2590.6,729.6c20.5,29.1,30.6,64.2,28.8,99.7v241.9h-72.7V835.6c1.4-21-3.2-41.9-13.3-60.4
			c-9.7-15.5-27.6-23.8-45.7-21c-17.5,0.9-34.6,5.9-49.8,14.6c-19.9,10.9-38.6,23.9-55.8,38.9c0,4.6,0,11.4,0,21v241.9h-70v-235
			c1.1-20.9-3.4-41.8-13.3-60.4c-9.7-15.5-27.6-23.8-45.7-21c-18.6,0.8-36.7,6.3-52.6,16c-20.9,12-40.5,26.1-58.5,42.1v258.3h-70.9
			V704.9h50.7l12.8,48.5c19.4-18.1,41.6-33,65.8-43.9c21.6-10.9,45.3-16.8,69.5-17.4c21.5-0.7,42.7,4.7,61.3,15.5
			c17.2,10.8,30.5,26.9,37.9,45.7c19.3-17.9,41.4-32.6,65.4-43.4c21.7-11,45.6-17.1,70-17.8C2537.6,689.9,2569.7,703.8,2590.6,729.6
			z"/>
		<path class="st0" d="M3019.4,884.1v19.7h-259.7c1.3,31.5,13.8,61.5,35.2,84.6c24,22.1,56.2,33.2,88.7,30.6
			c16.4,0.1,32.7-2.2,48.5-6.9c20.4-7.5,40.4-16,59.9-25.6l22.4,53c-39.7,25.2-85.6,38.9-132.6,39.8
			c-54.1,3.6-107.4-15.3-147.2-52.1c-35.5-37.8-54-88.5-51.2-140.4c-0.9-34.5,5.9-68.7,20.1-100.1c13.2-28.1,34.4-51.8,60.8-68.1
			c27.7-16.1,59.4-24.3,91.4-23.8c47-4,92.9,15.9,122.1,53C3006.5,787.3,3021.2,835.3,3019.4,884.1z M2761.1,854.4H2949
			c-9.6-65.4-40.2-97.8-91.4-97.8c-24.8-1.2-48.9,8.3-66.3,26.1C2773.8,802.7,2763.2,827.8,2761.1,854.4z"/>
		<path class="st0" d="M3160.7,812.3v258.3h-73.6V704.9h50.7l12.8,48.5c19.6-17.9,42-32.6,66.3-43.4c22.8-10.9,47.8-16.7,73.2-16.9
			c33.7-2.6,66.6,11,88.7,36.6c20.7,29,31,64.1,29.3,99.7v241.9h-72.7V835.6c1.4-21.1-3.2-42.2-13.3-60.8
			c-10.6-14.4-27.9-22.2-45.7-20.6c-19.6,0.8-38.7,6.3-55.8,16C3199.2,782.1,3179.1,796.2,3160.7,812.3z"/>
		<path class="st0" d="M3585.9,709h66.3l22.9,54.9h-91.4v193.4c-0.7,16.2,3.8,32.2,12.8,45.7c9.4,12,24.1,18.5,39.3,17.4
			c12.3-0.7,24.4-3.6,35.7-8.7l18.7,55.3c-9.3,4.7-19.1,8.4-29.3,11c-10.5,3.1-21.5,4.8-32.5,5c-31.5,1.8-62.4-9.1-86-30.2
			c-21.7-22.6-33-53.3-31.1-84.6V763.8h-48.9V709h52.1v-91.4l71.3-16.9V709z"/>
		<path class="st0" d="M4075.1,988.3c-14.7,29.3-37.8,53.5-66.3,69.5c-29.7,16.5-63.4,24.9-97.4,24.2c-33.7,0.7-67.1-7.6-96.5-24.2
			c-27.2-15.9-49.1-39.4-63.1-67.7c-15.2-31.6-22.7-66.4-21.9-101.5c-0.6-34.7,7.3-69.1,22.9-100.1c14.4-28.3,36.6-52,64-68.1
			c29.8-16.4,63.4-24.6,97.4-23.8c33.7-0.9,67,7.3,96.5,23.8c27.5,15.4,49.9,38.4,64.5,66.3c15.5,31.4,23.2,66,22.4,101
			C4098.3,922.6,4090.6,957.1,4075.1,988.3z M3993.3,981.5c20.3-26.1,31.1-58.4,30.6-91.4c1.5-34.1-8.4-67.8-28.3-95.6
			c-19.1-24.3-48.7-37.9-79.6-36.6c-30.9-1-60.4,12.8-79.6,37c-20.2,26.2-31,58.4-30.6,91.4c-1.6,34.2,8.6,67.9,28.8,95.6
			c37,43.8,102.4,49.4,146.3,12.4c4.5-3.8,8.6-7.9,12.4-12.4V981.5z"/>
		<path class="st0" d="M4144.6,1046.9l22.4-50.3c30.5,15.5,64.1,23.9,98.3,24.7c20,1.1,39.9-3.4,57.6-12.8
			c12.9-6.3,21.2-19.4,21.5-33.8c0-25.1-27-45.7-81.4-63.6c-80-26.1-120.2-62.6-120.2-110.2c-1-30.6,13-59.8,37.5-78.2
			c29.9-20.1,65.5-29.9,101.5-27.9c20.6,0.5,41,3.8,60.8,9.6c20.3,5,39.6,13.4,57.2,24.7l-22.9,49.4c-15.7-7.3-31.9-13.6-48.5-18.7
			c-15.6-4.3-31.8-6.5-48-6.4c-16.2-0.4-32.2,4.3-45.7,13.3c-11.5,7-18.5,19.5-18.7,32.9c1.9,12,9.3,22.3,20.1,27.9
			c17.2,10.7,35.8,19,55.3,24.7c82.8,29.7,123.9,69.5,123.9,118.9c1.4,31.6-13,61.7-38.4,80.5c-32.7,21.1-71.3,31.2-110.2,28.8
			c-21.3-0.6-42.5-3.7-63.1-9.1C4182.5,1066.9,4162.5,1058.7,4144.6,1046.9z"/>
		<path class="st0" d="M417.5,874.9l-18.3,20.1L326,829.2c-16.9,22.9-38.8,41.6-64,54.9c-25.7,13.4-54.2,20.3-83.2,20.1
			c-30.6,0.4-61-6.1-88.7-19.2c-25.2-12.5-46.5-31.8-61.3-55.8C13.5,804.4,5.5,775.7,6,746.5c-0.1-30.3,7.2-60.1,21.5-86.9
			c13.8-25.9,34-47.9,58.5-64c-17.6-25.4-27.1-55.5-27.4-86.4c-0.1-22.3,5.4-44.3,16-64c10.8-19.1,26.6-34.9,45.7-45.7
			c19.1-11.7,41.2-17.7,63.6-17.4c21.3-0.2,42.5,2.6,63.1,8.2c17,5.1,33.4,12,48.9,20.6l-15.5,23.8c-14.8-6.7-30.1-12.3-45.7-16.9
			c-14.9-4.1-30.3-6-45.7-5.5c-17.5-0.1-34.7,4.5-49.8,13.3c-14.3,8.7-26.2,20.8-34.7,35.2c-7.9,13.9-12.2,29.7-12.3,45.7
			c-0.2,24.7,6.6,49,19.7,70c17.6,26,38.5,49.5,62.2,70l146.8,137.2c12.4-21.5,21.9-44.6,28.3-68.6c6.4-23.3,9.7-47.2,10.1-71.3
			l26.5,8.2c0,27.2-3.7,54.3-11,80.5c-6.6,25.9-16.9,50.7-30.6,73.6L417.5,874.9z M304.1,807.7L148.2,665.1
			c-16.5-14-31.8-29.3-45.7-45.7c-19.5,13.9-35.2,32.4-45.7,54c-10.7,22.1-16.2,46.3-16,70.9c-0.3,24,6.9,47.5,20.6,67.2
			c13.3,19.5,31.4,35.3,52.6,45.7c21.3,11.2,45,17.3,69,17.8c23.5,0.1,46.7-5.9,67.2-17.4C271.4,845,289.8,828,304.1,807.7z"/>
	</g>
</g>
<g>
	<path class="st0" d="M1740.9,1370.8h42.5l12.5,28.9h-55v135.2c0,12.5,2.7,22.4,8.2,29.4c5.5,7.1,13.8,10.6,25.1,10.6
		c6.1,0,13.2-1.6,21.3-4.8l8.7,29.9c-11.6,5.5-23.5,8.2-35.7,8.2c-20.3,0-36.3-5.9-48-17.6c-11.7-11.7-17.6-28.5-17.6-50.4v-140.5
		H1669l-0.5-28.9h34.3v-59.9l38.1-10.6V1370.8z"/>
	<path class="st0" d="M2040.1,1490h-169.9c1,26.4,8.1,47.2,21.5,62.5c13.3,15.3,33.8,22.9,61.5,22.9c12.5,0,24-1.6,34.5-4.8
		c10.4-3.2,22.9-8.4,37.4-15.4l12.1,28c-13.2,7.4-26.4,13.3-39.6,17.6c-13.2,4.4-27.8,6.5-43.9,6.5c-39.9,0-70.3-11.3-91.2-33.8
		c-20.9-22.5-31.4-52.6-31.4-90.3c0-23.8,4.3-45,12.8-63.4c8.5-18.5,21.1-33,37.7-43.4c16.6-10.4,36.1-15.7,58.6-15.7
		c34.1,0,59.3,11.9,75.5,35.7C2032,1420.2,2040.1,1451.4,2040.1,1490z M1871.2,1463.9h131.3c-5.5-47.3-26.7-70.9-63.7-70.9
		c-19.9,0-35.6,6.3-47,19.1C1880.3,1424.8,1873.4,1442,1871.2,1463.9z"/>
	<path class="st0" d="M2161.2,1510.7l-57.4,90.3h-43l78.7-118.7l-70.5-107.6l34.3-14.5l63.2,99.4l59.8-92.7h42l-80.6,121.6
		l73.4,112.5h-42L2161.2,1510.7z"/>
	<path class="st0" d="M2353.3,1370.8h42.5l12.5,28.9h-55v135.2c0,12.5,2.7,22.4,8.2,29.4c5.4,7.1,13.8,10.6,25.1,10.6
		c6.1,0,13.2-1.6,21.3-4.8l8.7,29.9c-11.6,5.5-23.5,8.2-35.7,8.2c-20.3,0-36.3-5.9-48-17.6c-11.7-11.7-17.6-28.5-17.6-50.4v-140.5
		h-33.8l-0.5-28.9h34.2v-59.9l38.1-10.6V1370.8z"/>
	<path class="st0" d="M2476.9,1320.1c-7.4,0-13.5-2.4-18.3-7.2c-4.9-4.8-7.3-10.9-7.3-18.4c0-7.4,2.4-13.6,7.3-18.6
		c4.8-5,10.9-7.5,18.3-7.5c7.1,0,13.2,2.6,18.4,7.7c5.1,5.1,7.7,11.3,7.7,18.4c0,7.1-2.6,13.1-7.7,18.1
		C2490.1,1317.6,2483.9,1320.1,2476.9,1320.1z M2496.6,1366.9V1601h-38.6v-234.1H2496.6z"/>
	<path class="st0" d="M2599.9,1260.2V1601h-38.1v-335.9L2599.9,1260.2z"/>
	<path class="st0" d="M2859.6,1490h-169.9c1,26.4,8.1,47.2,21.5,62.5c13.3,15.3,33.8,22.9,61.5,22.9c12.5,0,24.1-1.6,34.5-4.8
		c10.4-3.2,22.9-8.4,37.4-15.4l12.1,28c-13.2,7.4-26.4,13.3-39.6,17.6c-13.2,4.4-27.9,6.5-43.9,6.5c-39.9,0-70.3-11.3-91.2-33.8
		c-20.9-22.5-31.4-52.6-31.4-90.3c0-23.8,4.3-45,12.8-63.4c8.5-18.5,21.1-33,37.6-43.4c16.6-10.4,36.1-15.7,58.6-15.7
		c34.1,0,59.3,11.9,75.5,35.7C2851.5,1420.2,2859.6,1451.4,2859.6,1490z M2690.7,1463.9h131.3c-5.5-47.3-26.7-70.9-63.7-70.9
		c-20,0-35.6,6.3-47.1,19.1C2699.7,1424.8,2692.9,1442,2690.7,1463.9z"/>
	<path class="st0" d="M3038.1,1409.8l-11.1-28.9c8.4-5.8,20.7-10.6,36.9-14.5c16.3-3.8,29.7-5.8,40.3-5.8c17.7,0,33.4,3.3,47.3,10.1
		c13.8,6.7,24.6,16.1,32.3,28c7.7,11.9,11.6,25.4,11.6,40.5V1601H3167l-4.8-23.7c-8.7,8-19.5,15-32.3,21c-12.9,6-25.4,8.9-37.6,8.9
		c-26.1,0-45.9-6.7-59.6-20.3c-13.7-13.5-20.5-31-20.5-52.6c0-22.5,7.7-40.1,23.2-52.6c15.4-12.5,35.9-18.8,61.3-18.8h60.3v-13
		c0-17.4-4.1-31-12.3-41c-8.2-10-21.2-15-38.8-15c-13.8,0-25.7,1.3-35.5,4.1C3060.4,1400.8,3049.7,1404.7,3038.1,1409.8z
		 M3047.3,1534.4c0,11.3,3.7,21.1,11.1,29.4c7.4,8.4,18.4,12.5,32.8,12.5c12.5,0,24.5-3.2,35.9-9.6c11.4-6.4,21.5-14.8,30.2-25.1
		v-53.1h-61.8c-15.1,0-26.9,4.4-35.5,13.3C3051.6,1510.7,3047.3,1521.5,3047.3,1534.4z"/>
	<path class="st0" d="M3444.5,1626.6c0,16.4-4.2,31-12.5,43.9c-8.3,12.9-20.6,23-36.7,30.4c-16.1,7.4-34.9,11.1-56.5,11.1
		c-10.9,0-24.9-2-41.7-6c-16.9-4-30.1-9.1-39.8-15.2l11.6-28c12.5,6.1,23.7,10.6,33.5,13.5c9.8,2.9,21.5,4.3,35,4.3
		c20.3,0,36.7-4.6,49.5-14c12.7-9.3,19.1-22.9,19.1-40.5v-37.1c-8.7,5.8-17.9,10.3-27.8,13.5s-18.9,4.8-27.3,4.8
		c-34.7,0-62-11.3-81.8-34s-29.7-52.8-29.7-90.5c0-23.8,4.6-44.9,13.8-63.4c9.2-18.5,22.2-32.9,39.1-43.2
		c16.9-10.3,36.7-15.4,59.6-15.4c9.6,0,20,2.1,30.9,6.3c10.9,4.2,21.1,9.8,30.4,16.9l8.2-16.9h23.1V1626.6z M3381,1569.4
		c8.8-3.7,17.1-9.4,24.9-17.1v-138.5c-15.4-13.8-33.8-20.8-55.1-20.8c-23.1,0-41,8.3-53.5,24.9c-12.5,16.6-19,38-19.3,64.4
		c0,28,6.2,50.4,18.6,67.3c12.4,16.9,30.3,25.3,53.8,25.3C3362,1574.9,3372.2,1573.1,3381,1569.4z"/>
	<path class="st0" d="M3702.2,1490h-169.8c0.9,26.4,8.1,47.2,21.5,62.5c13.3,15.3,33.8,22.9,61.5,22.9c12.5,0,24-1.6,34.5-4.8
		c10.4-3.2,22.9-8.4,37.4-15.4l12.1,28c-13.2,7.4-26.3,13.3-39.6,17.6c-13.2,4.4-27.8,6.5-43.9,6.5c-39.9,0-70.3-11.3-91.2-33.8
		c-20.9-22.5-31.4-52.6-31.4-90.3c0-23.8,4.2-45,12.8-63.4c8.5-18.5,21.1-33,37.7-43.4c16.6-10.4,36.1-15.7,58.6-15.7
		c34.1,0,59.3,11.9,75.5,35.7C3694.1,1420.2,3702.2,1451.4,3702.2,1490z M3533.3,1463.9h131.3c-5.4-47.3-26.7-70.9-63.7-70.9
		c-19.9,0-35.6,6.3-47,19.1C3542.4,1424.8,3535.5,1442,3533.3,1463.9z"/>
	<path class="st0" d="M3786.7,1434.9v166h-38.1v-234.1h28.4l6.3,33.3c11.3-11.6,25.1-21.2,41.5-28.9c16.4-7.7,32-11.6,46.8-11.6
		c24.8,0,43.2,7.5,55.3,22.5c12.1,15,18.1,35,18.1,60.1v158.3h-38.1v-153c0-17.4-3.2-30.9-9.6-40.5c-6.4-9.6-17.2-14.5-32.3-14.5
		c-11.6,0-24.7,4-39.3,12.1C3810.9,1412.6,3797.9,1422.7,3786.7,1434.9z"/>
	<path class="st0" d="M4166.9,1558.5l12.1,27.5c-9.6,6.1-22.2,11.2-37.6,15.2c-15.4,4-28.4,6-39.1,6c-23.2,0-43.3-5.2-60.3-15.7
		c-17.1-10.4-30.1-25.1-39.1-43.9c-9-18.8-13.5-40.3-13.5-64.4c0-23.8,4.8-45,14.2-63.4c9.5-18.5,22.9-33,40.3-43.4
		s37.6-15.7,60.8-15.7c10.6,0,23.6,2,38.8,6c15.3,4,27.6,9.1,36.9,15.2l-11.6,27.1c-12.9-5.5-23.5-9.5-32.1-12.1
		c-8.5-2.5-19.6-3.8-33.1-3.8c-23.2,0-41.5,8.4-55,25.3c-13.5,16.9-20.4,38.4-20.8,64.4c0,27.4,6.4,49.6,19.3,66.6
		c12.9,17.1,31,25.6,54.5,25.6c14.2,0,25.7-1.3,34.7-3.8C4145.6,1568.5,4155.7,1564.3,4166.9,1558.5z"/>
	<path class="st0" d="M4271.7,1639.6l14.5-40.1l-86.9-225.4l33.8-14.5l70.9,188.2l67.1-181h38.6l-103.3,282.4
		c-5.5,14.5-14.7,26.8-27.8,37.1c-13,10.3-28,17.2-45.1,20.8l-11.6-27.5c15.1-7.1,26.3-13.1,33.6-18.1
		C4262.8,1656.5,4268.1,1649.3,4271.7,1639.6z"/>
</g>
</svg>
