<?xml version="1.0" encoding="UTF-8"?>
<svg width="4410px" height="1239px" viewBox="0 0 4410 1239" version="1.1" xmlns="http://www.w3.org/2000/svg" xmlns:xlink="http://www.w3.org/1999/xlink">
    <!-- Generator: Sketch 64 (93537) - https://sketch.com -->
    <title>logo</title>
    <desc>Created with Sketch.</desc>
    <g id="Page-1" stroke="none" stroke-width="1" fill="none" fill-rule="evenodd">
        <g id="logo" transform="translate(-1.000000, 0.000000)" fill="#F3EEE9" fill-rule="nonzero">
            <g id="Layer_2_1_">
                <g id="Layer_1-2">
                    <path d="M524.5,344.5 L524.5,532.9 L452.3,532.9 L452.3,19.9 L599.5,19.9 C649.4,17.6 698.8,31.4 740.3,59.2 C776.9,88.1 796.8,133.4 793.3,179.9 C794.3,212.5 784.8,244.5 766.3,271.3 C747.7,296.3 722.3,315.3 693.1,326.2 C660.7,338.5 626.3,344.6 591.6,344 L524.5,344.5 Z M598.5,81.2 L524.4,81.2 L524.4,284.2 L595.3,284.2 C626.5,285.6 657.4,276.8 683.1,259.1 C705.8,240.6 718.6,212.5 717.8,183.2 C721.1,153.3 709.4,123.8 686.7,104.1 C660.6,87.1 629.7,79.1 598.5,81.2 Z" id="Shape"></path>
                    <path d="M893.4,247.2 L873.3,189.6 C891.6,178.6 911.7,170.8 932.7,166.7 C953.9,161 975.7,157.8 997.6,157.1 C1023.7,156.9 1049.5,162.6 1073,174 C1094.6,184.2 1113.1,200 1126.5,219.7 C1138.6,239.1 1144.7,261.7 1143.9,284.6 L1143.9,532.9 L1095,532.9 L1085.9,498.2 C1071.1,511.3 1054.3,521.8 1036.1,529.3 C1018.2,537.6 998.7,542 978.9,542.1 C944.4,544.5 910.2,533.4 883.8,511 C861.8,488.9 850,458.5 851.3,427.3 C849.7,395.3 863.3,364.5 887.9,344.1 C916,322.9 950.6,312.4 985.7,314.4 L1072.6,314.4 C1074.1,290.4 1068.3,266.5 1056.1,245.8 C1042.5,228.7 1021.1,219.8 999.4,222 C962.8,222.7 926.6,231.3 893.4,247.2 Z M915.4,427.3 C915.3,442.4 921,457 931.4,468 C943.6,479.9 960.2,486 977.1,484.9 C995,484.7 1012.6,480.2 1028.3,471.6 C1045.6,462.8 1061.1,450.9 1074,436.4 L1074,362.3 L984.4,362.3 C965.8,361.2 947.6,368.2 934.6,381.5 C922.1,393.5 915.2,410 915.4,427.3 Z" id="Shape"></path>
                    <path d="M1305.8,290.6 L1305.8,532.9 L1235.4,532.9 L1235.4,167.1 L1276.1,167.1 L1297.6,228.8 C1316.2,213.2 1336.5,199.5 1358,188.1 C1376.2,176.4 1396.9,169.2 1418.4,167.1 L1434.4,225.2 C1412.6,226.8 1391.5,233.3 1372.7,244.4 C1348.4,256.7 1325.9,272.3 1305.8,290.6 Z" id="Path"></path>
                    <path d="M1520.7,247.2 L1500.6,189.6 C1518.7,178.5 1538.7,170.7 1559.6,166.7 C1581,161 1602.9,157.8 1625,157.098707 C1651.1,157 1676.9,162.7 1700.4,174 C1721.9,184.2 1740.2,200 1753.4,219.7 C1766,238.7 1772.7,260.9 1772.6011,283.7 L1772.6011,532 L1722.3,532 L1713.2,497.3 C1698.4,510.3 1681.5,520.8 1663.4,528.4 C1645.5,536.6 1626,541 1606.2,541.2 C1571.3,544.3 1536.6,533.5 1509.7,511 C1487.5,489 1475.7,458.6 1477.2,427.3 C1475.4,395.3 1489,364.4 1513.8,344.1 C1541.9,322.9 1576.5,312.4 1611.6,314.4 L1698,314.4 C1699.6,290.5 1694,266.6 1682,245.8 C1668.2,228.7 1646.7,219.8 1624.8,222 C1588.8,223 1553.3,231.5 1520.7,247.2 Z M1543.6,427.3 C1543.3,442.4 1548.9,457 1559.1,468 C1571.3,479.9 1587.9,486 1604.8,484.9 C1622.8,484.7 1640.6,480.2 1656.5,471.6 C1673.7,462.7 1689.2,450.8 1702.2,436.4 L1702.2,362.3 L1610.8,362.3 C1592.2,361.4 1574.1,368.3 1561,381.5 C1549.3,393.9 1543.1,410.4 1543.6,427.3 Z" id="Shape"></path>
                    <path d="M2112.8,183.1 C2140.2,199.1 2162.2,223 2175.9,251.7 C2191.1,283.8 2198.6,319 2197.8,354.6 C2198.4,389.2 2190.6,423.4 2174.9,454.3 C2160.3,482.2 2138.1,505.3 2110.9,521.1 C2081.5,537.2 2048.4,545.4 2014.9,544.9 C1999.3,544.6 1983.9,541.8 1969.2,536.7 C1951.8,531 1935.6,522.4 1921.2,511.1 L1907,533 L1865.9,533 L1865.9,8.5 L1940.4,0.3 L1940.4,180 C1953.2,173 1966.7,167.5 1980.6,163.5 C1992,159.7 2003.8,157.5 2015.8,157.1 C2049.9,156.9 2083.4,165.9 2112.8,183.1 Z M2095,445.1 C2114.9,418.9 2125.1,386.6 2123.8,353.7 C2125.5,319.1 2115.5,285 2095.5,256.8 C2076.7,232.1 2046.9,218.2 2015.9,219.8 C1988.4,219 1961.6,228.3 1940.5,245.9 L1940.5,457.6 C1962.1,474.2 1988.7,482.9 2015.9,482.3 C2046.7,483.3 2076.1,469.5 2095,445.1 Z" id="Shape"></path>
                    <path d="M2586.5,450.6 C2572.2,479.1 2549.7,502.8 2522,518.7 C2492.1,535.3 2458.3,543.6 2424.2,542.9 C2390.5,543.6 2357.1,535.2 2327.7,518.7 C2300.5,502.7 2278.7,479 2265.1,450.6 C2249.3,419.3 2241.1,384.6 2241.3,349.6 C2240.6,314.9 2248.3,280.6 2263.7,249.5 C2278.8,221.4 2301.9,198.3 2330,183.2 C2359.7,166.5 2393.3,158.2 2427.4,159 C2461,158.3 2494.2,166.7 2523.4,183.2 C2550.7,199.3 2572.8,222.9 2587,251.3 C2601.3,282.4 2608.1,316.3 2607.1,350.5 C2608.4,385 2601.3,419.4 2586.5,450.6 Z M2504.6,444.2 C2524.5,417.9 2535.3,385.8 2535.2,352.8 C2536.8,318.6 2526.7,284.9 2506.4,257.2 C2487.5,232.9 2458,219.2 2427.3,220.6 C2396.3,219.5 2366.6,233.3 2347.3,257.6 C2327.2,283.8 2316.5,316 2317.1,349 C2315.4,383 2325.4,416.6 2345.4,444.1 C2364.3,468.6 2394.1,482.2 2425,480.7 C2455.9,481.9 2485.4,468.3 2504.6,444.2 Z" id="Shape"></path>
                    <polygon id="Path" points="2757 0.3 2757 532.9 2684.3 532.9 2684.3 8.5"></polygon>
                    <path d="M2887.3,247.2 L2867.2,189.6 C2885.6,178.5 2905.9,170.7 2927.1,166.7 C2948.5,161 2970.4,157.8 2992.5,157.1 C3018.6,156.9 3044.4,162.6 3067.9,174 C3089.5,184.2 3108,200 3121.4,219.7 C3134,238.7 3140.7,260.9 3140.6011,283.7 L3140.6011,532 L3088.9,532 L3079.8,497.3 C3065,510.4 3048.2,520.9 3030,528.4 C3012.1,536.7 2992.6,541 2972.8,541.2 C2938.3,543.6 2904.1,532.5 2877.7,510.1 C2855.7,488 2843.9,457.6 2845.2,426.4 C2843.8,394.8 2857.1,364.4 2881.3,344.1 C2909.4,322.9 2944,312.4 2979.1,314.4 L3066,314.4 C3067.5,290.4 3061.7,266.5 3049.5,245.8 C3035.7,228.7 3014.2,219.8 2992.3,222 C2956,222.8 2920.2,231.4 2887.3,247.2 Z M2910.2,427.3 C2909.9,442.5 2915.6,457.1 2926.2,468 C2938.4,479.9 2955,486 2971.9,484.9 C2989.8,484.7 3007.4,480.2 3023.1,471.6 C3040.4,462.8 3055.9,450.9 3068.8,436.4 L3068.8,362.3 L2977.4,362.3 C2958.7,361.2 2940.4,368.2 2927.1,381.5 C2915.6,394 2909.6,410.4 2910.2,427.3 Z" id="Shape"></path>
                    <path d="M3207.4,509.6 L3230.3,459.3 C3260.6,474.8 3294.1,483.2 3328.1,484 C3347.6,484.7 3367,480.3 3384.3,471.2 C3397.2,464.9 3405.5,451.8 3405.8,437.4 C3405.8,412.3 3378.4,391.7 3324,373.8 C3247.2,347.7 3206,310.7 3206,263.6 C3204.6,232.9 3218.6,203.5 3243.5,185.4 C3273.3,165.1 3309,155.1 3345,157.1 C3365.6,157.6 3386.1,161 3405.8,167.2 C3425.9,172.2 3445.1,180.6 3462.5,191.9 L3440.1,241.3 C3424.5,233.8 3408.3,227.5 3391.6,222.6 C3375.8,218.2 3359.5,216.1 3343.1,216.2 C3326.9,215.9 3310.9,220.5 3297.4,229.5 C3286,236.6 3279.1,249 3279.1,262.4 C3280.7,274.3 3288.1,284.7 3298.8,290.3 C3316.2,300.9 3335,309.2 3354.6,315 C3435.5,344.7 3475.8,384.5 3475.8,433.4 C3477.1,465.2 3462.5,495.5 3436.9,514.3 C3404.2,535.4 3365.6,545.5 3326.7,543.1 C3305.5,542.5 3284.5,539.4 3264.1,534 C3243.8,529.3 3224.6,521.1 3207.4,509.6 Z" id="Path"></path>
                    <path d="M486.1,1064.6 L679.5,551.2 L744.9,551.2 L942.9,1060.1 L869.7,1070.6 L816.2,927 L608.2,927 L557,1064.2 L486.1,1064.6 Z M628.7,868.9 L795.6,868.9 L711,648.6 L628.7,868.9 Z" id="Shape"></path>
                    <path d="M1068.1,823.2 L1068.1,1065.5 L995.4,1065.5 L995.4,699.8 L1036.1,699.8 L1059.9,759.2 C1078.5,743.6 1098.8,729.9 1120.3,718.5 C1139.1,707.4 1160.3,701 1182,699.8 L1198,757.9 C1175.1,759 1152.8,765.6 1133.1,777.1 C1109.4,789.4 1087.5,804.9 1068.1,823.2 Z" id="Path"></path>
                    <path d="M1563.2,1097.6 C1563.4,1123.4 1556.1,1148.6 1542.2,1170.3 C1527.5,1192.5 1506.7,1210 1482.3,1220.6 C1452.5,1233.1 1420.4,1239.2 1388.1,1238.4 C1365.5,1237.8 1343.1,1234.4 1321.3,1228.3 C1299,1223.2 1277.6,1214.4 1258.2,1202.2 L1281.1,1149.6 C1306.2,1160.6 1326.8,1168.3 1337.8,1172.5 C1353.6,1177.3 1370.2,1179.5 1386.7,1178.9 C1413.5,1180.3 1440.1,1172.7 1462.1,1157.4 C1480.3,1143 1490.5,1120.7 1489.5,1097.5 L1489.5,1051.8 C1476.2,1059.6 1462.1,1065.9 1447.4,1070.5 C1435.2,1074.7 1422.4,1077 1409.5,1077.4 C1375.5,1077.7 1342,1068.9 1312.6,1051.8 C1285.3,1035.8 1263.3,1012.1 1249.5,983.7 C1234.7,951.3 1227.3,916 1228,880.4 C1226.6,844.8 1234.3,809.3 1250.4,777.5 C1264.7,749.5 1287,726.3 1314.4,710.7 C1343.7,694.4 1376.9,686.2 1410.4,686.9 C1426,687.4 1441.4,690.3 1456.1,695.6 C1474,701.8 1490.8,710.7 1505.9,722.1 L1520.5,696.5 L1562.1,696.5 L1563.2,1097.6 Z M1453.5,1006.1 C1466.9,1000.6 1479.1,992.7 1489.6,982.8 L1489.6,777.5 C1478.9,767.9 1466.5,760.5 1453,755.6 C1438.3,750.5 1422.8,748.2 1407.3,748.7 C1376.8,747.4 1347.4,760.6 1328.2,784.4 C1308.3,810.6 1298.2,843 1299.4,875.8 C1297.8,910.5 1307.8,944.8 1327.7,973.2 C1346.6,997.8 1376.3,1011.6 1407.3,1010.2 C1422.9,1012 1438.6,1010.6 1453.5,1006.1 Z" id="Shape"></path>
                    <path d="M1903.4,956.7 L1903.4,698.4 L1975.6,698.4 L1975.6,1064.2 L1925.3,1064.2 L1912.5,1015.7 C1892.6,1034.2 1870.1,1049.6 1845.7,1061.4 C1822.9,1072.4 1797.9,1078.2 1772.5,1078.3 C1738.7,1080.8 1705.8,1067.1 1683.8,1041.3 C1663.2,1012.3 1653.1,977.2 1655,941.6 L1655,698.4 L1727.2,698.4 L1727.2,933 C1725.9,954.1 1730.5,975.2 1740.5,993.8 C1751.1,1008.2 1768.4,1016.1 1786.2,1014.8 C1806,1014.1 1825.4,1008.5 1842.4,998.3 C1864.3,986.7 1884.7,972.7 1903.4,956.7 Z" id="Path"></path>
                    <path d="M2585.6,723.6 C2606.1,752.7 2616.2,787.8 2614.4,823.3 L2614.4,1065.2 L2541.7,1065.2 L2541.7,829.6 C2543.1,808.6 2538.5,787.7 2528.4,769.2 C2518.7,753.7 2500.8,745.4 2482.7,748.2 C2465.2,749.1 2448.1,754.1 2432.9,762.8 C2413,773.7 2394.3,786.7 2377.1,801.7 C2377.1,806.3 2377.1,813.1 2377.1,822.7 L2377.1,1064.6 L2307.1,1064.6 L2307.1,829.6 C2308.2,808.7 2303.7,787.8 2293.8,769.2 C2284.1,753.7 2266.2,745.4 2248.1,748.2 C2229.5,749 2211.4,754.5 2195.5,764.2 C2174.6,776.2 2155,790.3 2137,806.3 L2137,1064.6 L2066.1,1064.6 L2066.1,698.9 L2116.8,698.9 L2129.6,747.4 C2149,729.3 2171.2,714.4 2195.4,703.5 C2217,692.6 2240.7,686.7 2264.9,686.1 C2286.4,685.4 2307.6,690.8 2326.2,701.6 C2343.4,712.4 2356.7,728.5 2364.1,747.3 C2383.4,729.4 2405.5,714.7 2429.5,703.9 C2451.2,692.9 2475.1,686.8 2499.5,686.1 C2532.6,683.9 2564.7,697.8 2585.6,723.6 Z" id="Path"></path>
                    <path d="M3014.4,878.1 L3014.4,897.8 L2754.7,897.8 C2756,929.3 2768.5,959.3 2789.9,982.4 C2813.9,1004.5 2846.1,1015.6 2878.6,1013 C2895,1013.1 2911.3,1010.8 2927.1,1006.1 C2947.5,998.6 2967.5,990.1 2987,980.5 L3009.4,1033.5 C2969.7,1058.7 2923.8,1072.4 2876.8,1073.3 C2822.7,1076.9 2769.4,1058 2729.6,1021.2 C2694.1,983.4 2675.6,932.7 2678.4,880.8 C2677.5,846.3 2684.3,812.1 2698.5,780.7 C2711.7,752.6 2732.9,728.9 2759.3,712.6 C2787,696.5 2818.7,688.3 2850.7,688.8 C2897.7,684.8 2943.6,704.7 2972.8,741.8 C3001.5,781.3 3016.2,829.3 3014.4,878.1 Z M2756.1,848.4 L2944,848.4 C2934.4,783 2903.8,750.6 2852.6,750.6 C2827.8,749.4 2803.7,758.9 2786.3,776.7 C2768.8,796.7 2758.2,821.8 2756.1,848.4 Z" id="Shape"></path>
                    <path d="M3155.7,806.3 L3155.7,1064.6 L3082.1,1064.6 L3082.1,698.9 L3132.8,698.9 L3145.6,747.4 C3165.2,729.5 3187.6,714.8 3211.9,704 C3234.7,693.1 3259.7,687.3 3285.1,687.1 C3318.8,684.5 3351.7,698.1 3373.8,723.7 C3394.5,752.7 3404.8,787.8 3403.1,823.4 L3403.1,1065.3 L3330.4,1065.3 L3330.4,829.6 C3331.8,808.5 3327.2,787.4 3317.1,768.8 C3306.5,754.4 3289.2,746.6 3271.4,748.2 C3251.8,749 3232.7,754.5 3215.6,764.2 C3194.2,776.1 3174.1,790.2 3155.7,806.3 Z" id="Path"></path>
                    <path d="M3580.9,703 L3647.2,703 L3670.1,757.9 L3578.7,757.9 L3578.7,951.3 C3578,967.5 3582.5,983.5 3591.5,997 C3600.9,1009 3615.6,1015.5 3630.8,1014.4 C3643.1,1013.7 3655.2,1010.8 3666.5,1005.7 L3685.2,1061 C3675.9,1065.7 3666.1,1069.4 3655.9,1072 C3645.4,1075.1 3634.4,1076.8 3623.4,1077 C3591.9,1078.8 3561,1067.9 3537.4,1046.8 C3515.7,1024.2 3504.4,993.5 3506.3,962.2 L3506.3,757.8 L3457.4,757.8 L3457.4,703 L3509.5,703 L3509.5,611.6 L3580.8,594.7 L3580.8,703 L3580.9,703 Z" id="Path"></path>
                    <path d="M4070.1,982.3 C4055.4,1011.6 4032.3,1035.8 4003.8,1051.8 C3974.1,1068.3 3940.4,1076.7 3906.4,1076 C3872.7,1076.7 3839.3,1068.4 3809.9,1051.8 C3782.7,1035.9 3760.8,1012.4 3746.8,984.1 C3731.6,952.5 3724.1,917.7 3724.9,882.6 C3724.3,847.9 3732.2,813.5 3747.8,782.5 C3762.2,754.2 3784.4,730.5 3811.8,714.4 C3841.6,698 3875.2,689.8 3909.2,690.6 C3942.9,689.7 3976.2,697.9 4005.7,714.4 C4033.2,729.8 4055.6,752.8 4070.2,780.7 C4085.7,812.1 4093.4,846.7 4092.6,881.7 C4093.3,916.6 4085.6,951.1 4070.1,982.3 Z M3988.3,975.5 C4008.6,949.4 4019.4,917.1 4018.9,884.1 C4020.4,850 4010.5,816.3 3990.6,788.5 C3971.5,764.2 3941.9,750.6 3911,751.9 C3880.1,750.9 3850.6,764.7 3831.4,788.9 C3811.2,815.1 3800.4,847.3 3800.8,880.3 C3799.2,914.5 3809.4,948.2 3829.6,975.9 C3866.6,1019.7 3932,1025.3 3975.9,988.3 C3980.4,984.5 3984.5,980.4 3988.3,975.9 L3988.3,975.5 L3988.3,975.5 Z" id="Shape"></path>
                    <path d="M4139.6,1040.9 L4162,990.6 C4192.5,1006.1 4226.1,1014.5 4260.3,1015.3 C4280.3,1016.4 4300.2,1011.9 4317.9,1002.5 C4330.8,996.2 4339.1,983.1 4339.4,968.7 C4339.4,943.6 4312.4,923 4258,905.1 C4178,879 4137.8,842.5 4137.8,794.9 C4136.8,764.3 4150.8,735.1 4175.3,716.7 C4205.2,696.6 4240.8,686.8 4276.8,688.8 C4297.4,689.3 4317.8,692.6 4337.6,698.4 C4357.9,703.4 4377.2,711.8 4394.8,723.1 L4371.9,772.5 C4356.2,765.2 4340,758.9 4323.4,753.8 C4307.8,749.5 4291.6,747.3 4275.4,747.4 C4259.2,747 4243.2,751.7 4229.7,760.7 C4218.2,767.7 4211.2,780.2 4211,793.6 C4212.9,805.6 4220.3,815.9 4231.1,821.5 C4248.3,832.2 4266.9,840.5 4286.4,846.2 C4369.2,875.9 4410.3,915.7 4410.3,965.1 C4411.7,996.7 4397.3,1026.8 4371.9,1045.6 C4339.2,1066.7 4300.6,1076.8 4261.7,1074.4 C4240.4,1073.8 4219.2,1070.7 4198.6,1065.3 C4177.5,1060.9 4157.5,1052.7 4139.6,1040.9 Z" id="Path"></path>
                    <path d="M412.5,868.9 L394.2,889 L321,823.2 C304.1,846.1 282.2,864.8 257,878.1 C231.3,891.5 202.8,898.4 173.8,898.2 C143.2,898.6 112.8,892.1 85.1,879 C59.9,866.5 38.6,847.2 23.8,823.2 C8.5,798.4 0.5,769.7 1,740.5 C0.9,710.2 8.2,680.4 22.5,653.6 C36.3,627.7 56.5,605.7 81,589.6 C63.4,564.2 53.9,534.1 53.6,503.2 C53.5,480.9 59,458.9 69.6,439.2 C80.4,420.1 96.2,404.3 115.3,393.5 C134.4,381.8 156.5,375.8 178.9,376.1 C200.2,375.9 221.4,378.7 242,384.3 C259,389.4 275.4,396.3 290.9,404.9 L275.4,428.7 C260.6,422 245.3,416.4 229.7,411.8 C214.8,407.7 199.4,405.8 184,406.3 C166.5,406.2 149.3,410.8 134.2,419.6 C119.9,428.3 108,440.4 99.5,454.8 C91.6,468.7 87.3,484.5 87.2,500.5 C87,525.2 93.8,549.5 106.9,570.5 C124.5,596.5 145.4,620 169.1,640.5 L315.9,777.7 C328.3,756.2 337.8,733.1 344.2,709.1 C350.6,685.8 353.9,661.9 354.3,637.8 L380.8,646 C380.8,673.2 377.1,700.3 369.8,726.5 C363.2,752.4 352.9,777.2 339.2,800.1 L412.5,868.9 Z M299.1,801.7 L143.2,659.1 C126.7,645.1 111.4,629.8 97.5,613.4 C78,627.3 62.3,645.8 51.8,667.4 C41.1,689.5 35.6,713.7 35.8,738.3 C35.5,762.3 42.7,785.8 56.4,805.5 C69.7,825 87.8,840.8 109,851.2 C130.3,862.4 154,868.5 178,869.00123 C201.5,869.1 224.7,863.1 245.2,851.6 C266.4,839 284.8,822 299.1,801.7 Z" id="Shape"></path>
                </g>
            </g>
        </g>
    </g>
</svg>